<svg xmlns="http://www.w3.org/2000/svg" width="44" height="44" preserveAspectRatio="xMidYMid" viewBox="0 0 269 269">
  <circle cx="134.5" cy="134.5" r="131.3" fill="#91dc5a"/>
  <path fill="#fff" d="M79.7 108.3h-.4c-5 0-9 4-9 9v39c0 5 4 9 9 9h.4c5 0 9-4 9-9v-39c0-5-4.1-9-9-9zm13.2 63.2c0 4.5 3.7 8.2 8.3 8.2h8.8v21c0 5 4 9 9 9h.4c5 0 9-4 9-9v-21h12.3v21c0 5 4 9 9 9h.3c5 0 9-4 9-9v-21h8.8c4.6 0 8.3-3.7 8.3-8.2v-61.7H92.9zm62.3-99.2l7-10.8a1.5 1.5 0 1 0-2.5-1.6l-7.2 11.2a47.3 47.3 0 0 0-36 0l-7.2-11.2c-.4-.7-1.4-.9-2-.4-.7.4-1 1.4-.5 2l7 10.8a35.4 35.4 0 0 0-21 33.7h83.4l.2-2.4c0-13.4-8.6-25-21.2-31.3zm-40 19.4a4 4 0 1 1 0-8 4 4 0 0 1 0 8zm38.7 0a4 4 0 1 1 0-8 4 4 0 0 1 0 8zm35.8 16.6h-.3c-5 0-9 4-9 9v39c0 5 4 9 9 9h.3c5 0 9-4 9-9v-39c0-5-4-9-9-9z"/>
</svg>
