<svg width="44" height="44" viewBox="0 0 44 44" fill="none" xmlns="http://www.w3.org/2000/svg">
<rect width="44" height="44" rx="10" fill="#400067"/>
<path d="M24.962 13.2438L24.1591 13.0298C24.1079 13.0075 24.0522 12.9975 23.9964 13.0005C23.9406 13.0036 23.8863 13.0198 23.8379 13.0477C23.7487 13.119 23.6595 13.1903 23.6416 13.3151L18.7525 30.2326C18.7168 30.3396 18.7168 30.4465 18.7881 30.5535C18.8417 30.6426 18.9309 30.7318 19.038 30.7496L19.8588 30.9813C19.9088 30.9982 19.962 31.0037 20.0144 30.9976C20.0669 30.9914 20.1173 30.9737 20.1621 30.9457C20.2513 30.8922 20.3405 30.8031 20.3584 30.6783L25.2475 13.7607C25.2832 13.6538 25.2832 13.5468 25.2297 13.4399C25.1583 13.3507 25.087 13.2794 24.962 13.2616V13.2438ZM17.6461 16.5417C17.6461 16.4347 17.5926 16.3278 17.5034 16.2386L16.8432 15.5969C16.754 15.5078 16.6647 15.4543 16.5398 15.4543C16.4328 15.4543 16.3257 15.5078 16.2365 15.5969L10.134 21.6936C10.0918 21.732 10.0581 21.7788 10.035 21.831C10.0119 21.8832 10 21.9396 10 21.9967C10 22.0537 10.0119 22.1101 10.035 22.1623C10.0581 22.2145 10.0918 22.2613 10.134 22.2997L16.2365 28.3965C16.275 28.4386 16.3218 28.4723 16.374 28.4953C16.4263 28.5184 16.4827 28.5303 16.5398 28.5303C16.5969 28.5303 16.6534 28.5184 16.7056 28.4953C16.7579 28.4723 16.8047 28.4386 16.8432 28.3965L17.5034 27.7547C17.5456 27.7163 17.5793 27.6695 17.6024 27.6173C17.6255 27.5651 17.6374 27.5087 17.6374 27.4516C17.6374 27.3946 17.6255 27.3382 17.6024 27.286C17.5793 27.2338 17.5456 27.187 17.5034 27.1486L12.3466 21.9967L17.5034 16.8448C17.5926 16.7556 17.6283 16.6665 17.6283 16.5417H17.6461ZM33.8839 21.7114L27.7635 15.5969C27.6743 15.5078 27.5851 15.4543 27.4602 15.4543C27.3353 15.4543 27.246 15.5078 27.1568 15.5969L26.4966 16.2386C26.4544 16.2771 26.4207 16.3239 26.3976 16.3761C26.3745 16.4282 26.3626 16.4847 26.3626 16.5417C26.3626 16.5987 26.3745 16.6552 26.3976 16.7073C26.4207 16.7595 26.4544 16.8063 26.4966 16.8448L31.6713 22.0145L26.4966 27.1486C26.4544 27.187 26.4207 27.2338 26.3976 27.286C26.3745 27.3382 26.3626 27.3946 26.3626 27.4516C26.3626 27.5087 26.3745 27.5651 26.3976 27.6173C26.4207 27.6695 26.4544 27.7163 26.4966 27.7547L27.1568 28.3965C27.1953 28.4386 27.2421 28.4723 27.2944 28.4953C27.3466 28.5184 27.4031 28.5303 27.4602 28.5303C27.5173 28.5303 27.5737 28.5184 27.626 28.4953C27.6782 28.4723 27.725 28.4386 27.7635 28.3965L33.866 22.2997C33.9082 22.2613 33.9419 22.2145 33.965 22.1623C33.9881 22.1101 34 22.0537 34 21.9967C34 21.9396 33.9881 21.8832 33.965 21.831C33.9419 21.7788 33.9082 21.732 33.866 21.6936L33.8839 21.7114Z" fill="#FF8B8B"/>
</svg>
