<svg width="80" height="90" viewBox="0 0 80 90" fill="none" xmlns="http://www.w3.org/2000/svg">
<g filter="url(#filter0_dd)">
<path d="M16.0826 33.3476C13.828 33.3465 12.0006 35.1739 12 37.4215L12.0028 54.4788C12.0033 56.7341 13.8319 58.5543 16.0871 58.5537C18.3433 58.5537 20.1713 56.7335 20.1691 54.4792V37.4193C20.168 35.1723 18.3384 33.3465 16.0826 33.3476ZM49.0104 18.0297L51.8604 12.838C52.0122 12.5667 51.9127 12.2215 51.6373 12.0678C51.3591 11.9207 51.0159 12.0206 50.8685 12.2936L47.9897 17.5397C45.5676 16.4641 42.8568 15.8615 39.9886 15.8642C37.1281 15.8615 34.4185 16.4625 32.0064 17.5319L29.1243 12.2992C28.9746 12.0234 28.6297 11.9235 28.3577 12.0739C28.0807 12.2232 27.9789 12.5689 28.133 12.8397L30.984 18.0279C25.382 20.9099 21.5972 26.3985 21.6005 32.7L58.3812 32.6955C58.3829 26.3962 54.6046 20.9188 49.0104 18.0297ZM31.6231 26.0526C30.777 26.051 30.086 25.364 30.086 24.5149C30.086 23.6698 30.7747 22.975 31.6248 22.9754C32.4775 22.975 33.1674 23.6698 33.1684 24.5149C33.169 25.3629 32.4775 26.0522 31.6231 26.0526ZM48.3713 26.0493C47.5213 26.0505 46.8293 25.3629 46.8293 24.5116C46.8326 23.6681 47.5202 22.9732 48.3719 22.9699C49.2179 22.9727 49.9117 23.6681 49.9111 24.5121C49.9123 25.3617 49.2208 26.0499 48.3713 26.0493ZM21.7506 34.1173L21.7568 60.5527C21.7551 62.9574 23.7049 64.8986 26.1137 64.8986L29.0803 64.8997L29.0836 73.9255C29.0832 76.1731 30.9143 78 33.1641 78C35.4203 78 37.2483 76.1714 37.2489 73.9228L37.2467 64.8992L42.7589 64.8975L42.7611 73.9228C42.7611 76.1686 44.593 77.9994 46.8433 77.9951C49.0995 77.9967 50.9286 76.1681 50.928 73.9193L50.9253 64.8963L53.9026 64.8941C56.3056 64.8953 58.2605 62.9519 58.2616 60.5466L58.2566 34.1112L21.7506 34.1173ZM67.9971 37.4154C67.9967 35.1651 66.1693 33.3414 63.9135 33.3426C61.6588 33.3404 59.832 35.1667 59.832 37.4172L59.8354 54.4753C59.8348 56.7274 61.6616 58.5476 63.918 58.5482C66.1732 58.5476 67.9994 56.7274 68 54.4731L67.9971 37.4154Z" fill="#F4F7FC"/>
</g>
<defs>
<filter id="filter0_dd" x="0" y="0" width="80" height="90" filterUnits="userSpaceOnUse" color-interpolation-filters="sRGB">
<feFlood flood-opacity="0" result="BackgroundImageFix"/>
<feColorMatrix in="SourceAlpha" type="matrix" values="0 0 0 0 0 0 0 0 0 0 0 0 0 0 0 0 0 0 127 0"/>
<feOffset dx="4" dy="4"/>
<feGaussianBlur stdDeviation="4"/>
<feColorMatrix type="matrix" values="0 0 0 0 0.31832 0 0 0 0 0.721305 0 0 0 0 0.2765 0 0 0 1 0"/>
<feBlend mode="normal" in2="BackgroundImageFix" result="effect1_dropShadow"/>
<feColorMatrix in="SourceAlpha" type="matrix" values="0 0 0 0 0 0 0 0 0 0 0 0 0 0 0 0 0 0 127 0"/>
<feOffset dx="-4" dy="-4"/>
<feGaussianBlur stdDeviation="4"/>
<feColorMatrix type="matrix" values="0 0 0 0 1 0 0 0 0 1 0 0 0 0 1 0 0 0 0.12 0"/>
<feBlend mode="normal" in2="effect1_dropShadow" result="effect2_dropShadow"/>
<feBlend mode="normal" in="SourceGraphic" in2="effect2_dropShadow" result="shape"/>
</filter>
</defs>
</svg>
