<svg width="80" height="88" viewBox="0 0 80 88" fill="none" xmlns="http://www.w3.org/2000/svg">
<g filter="url(#filter0_dd)">
<path fill-rule="evenodd" clip-rule="evenodd" d="M67.9972 30.715C67.9967 29.6446 67.7704 28.6988 67.3127 27.8871C66.8631 27.0889 66.1897 26.4199 65.2866 25.8909C62.0913 24.0275 58.8946 22.1665 55.698 20.3055C51.4364 17.8246 47.1748 15.3436 42.9163 12.8568C40.9071 11.6836 38.959 11.7264 36.9647 12.9164C35.1764 13.9831 29.0697 17.5337 23.5303 20.7545L23.53 20.7547C19.878 22.878 16.4726 24.858 14.7136 25.8885C12.8905 26.9559 12.0033 28.5896 12.0028 30.713C12.0014 35.0847 12.0014 39.4563 12.0014 43.828C12.0014 48.1997 12.0014 52.5714 12 56.9432C12.0004 57.99 12.2171 58.9174 12.6547 59.717C13.1045 60.5394 13.7873 61.2268 14.7112 61.7677C16.4643 62.7946 19.8529 64.7646 23.4911 66.8796L23.4916 66.8799L23.4929 66.8807C29.0424 70.1068 35.172 73.6703 36.9638 74.7395C38.959 75.9302 40.9071 75.9728 42.917 74.7991C47.2366 72.2766 51.5595 69.7602 55.8825 67.2437L55.8862 67.2416C59.0208 65.4169 62.1555 63.5922 65.289 61.765C66.213 61.2243 66.8957 60.5365 67.3455 59.7148C67.7824 58.9152 67.9996 57.9878 68 56.9407C68 56.9407 68 39.4586 67.9972 30.715ZM48.0693 48.4007C46.4812 51.2492 43.4634 53.1743 40 53.1743C36.5578 53.1743 33.5571 51.2734 31.9609 48.455C31.1591 47.0408 30.738 45.4387 30.7396 43.8084C30.7396 38.636 34.8858 34.4428 40 34.4428C43.42 34.4428 46.4049 36.32 48.009 39.1095L56.1031 34.3956C52.8859 28.7788 46.8795 25 40 25C29.7291 25 21.4032 33.421 21.4032 43.8084C21.4032 47.2163 22.2996 50.412 23.8662 53.1685C27.0753 58.815 33.0987 62.6171 40 62.6171C46.9139 62.6171 52.9468 58.7997 56.1513 53.1366L48.0693 48.4007ZM63.2488 44.7196H65.5942V42.3599H63.2488V40H60.9029V42.3599H58.5578V44.7196H60.9029V47.08H63.2488V44.7196ZM54.6908 44.7196H57.036V42.3599H54.6908V40H52.3454V42.3599H50V44.7196H52.3454V47.08H54.6908V44.7196Z" fill="#F4F7FC"/>
</g>
<defs>
<filter id="filter0_dd" x="0" y="0" width="80" height="87.6564" filterUnits="userSpaceOnUse" color-interpolation-filters="sRGB">
<feFlood flood-opacity="0" result="BackgroundImageFix"/>
<feColorMatrix in="SourceAlpha" type="matrix" values="0 0 0 0 0 0 0 0 0 0 0 0 0 0 0 0 0 0 127 0"/>
<feOffset dx="4" dy="4"/>
<feGaussianBlur stdDeviation="4"/>
<feColorMatrix type="matrix" values="0 0 0 0 0.775463 0 0 0 0 0.655091 0 0 0 0 0.332803 0 0 0 1 0"/>
<feBlend mode="normal" in2="BackgroundImageFix" result="effect1_dropShadow"/>
<feColorMatrix in="SourceAlpha" type="matrix" values="0 0 0 0 0 0 0 0 0 0 0 0 0 0 0 0 0 0 127 0"/>
<feOffset dx="-4" dy="-4"/>
<feGaussianBlur stdDeviation="4"/>
<feColorMatrix type="matrix" values="0 0 0 0 1 0 0 0 0 1 0 0 0 0 1 0 0 0 0.12 0"/>
<feBlend mode="normal" in2="effect1_dropShadow" result="effect2_dropShadow"/>
<feBlend mode="normal" in="SourceGraphic" in2="effect2_dropShadow" result="shape"/>
</filter>
</defs>
</svg>
