<svg width="90" height="90" viewBox="0 0 90 90" fill="none" xmlns="http://www.w3.org/2000/svg">
<g filter="url(#filter0_dd)">
<path fill-rule="evenodd" clip-rule="evenodd" d="M27.7033 19.1964C32.7738 15.8083 38.7351 14 44.8333 14C48.8824 14 52.8919 14.7975 56.6328 16.347C60.3736 17.8966 63.7727 20.1677 66.6358 23.0309C69.4989 25.894 71.7701 29.2931 73.3196 33.0339C74.8691 36.7748 75.6667 40.7842 75.6667 44.8333C75.6667 50.9316 73.8583 56.8929 70.4703 61.9634C67.0823 67.0339 62.2668 70.9859 56.6328 73.3196C50.9987 75.6533 44.7991 76.2639 38.8181 75.0742C32.837 73.8845 27.343 70.9479 23.0309 66.6358C18.7188 62.3237 15.7822 56.8297 14.5925 50.8486C13.4028 44.8675 14.0134 38.668 16.3471 33.0339C18.6808 27.3999 22.6327 22.5844 27.7033 19.1964ZM56.1143 71.5396C61.2918 69.346 65.7219 65.6977 68.8677 61.0368C71.5679 57.041 73.2268 52.4338 73.6935 47.6338C74.1602 42.8338 73.4199 37.9933 71.54 33.5522C69.3456 28.375 65.6974 23.945 61.037 20.7986C57.041 18.0989 52.4338 16.4404 47.6339 15.9738C42.834 15.5072 37.9936 16.2473 33.5524 18.1269C28.3748 20.3205 23.9447 23.9689 20.799 28.6297C18.0988 32.6255 16.4399 37.2327 15.9732 42.0327C15.5065 46.8327 16.2468 51.6732 18.1267 56.1144C20.3211 61.2915 23.9693 65.7215 28.6297 68.8679C32.6257 71.5676 37.2329 73.2261 42.0328 73.6927C46.8327 74.1592 51.6731 73.4192 56.1143 71.5396ZM37.5749 69.4808L45.2855 47.0797L53.1828 68.7167C53.2337 68.8399 53.2953 68.9584 53.3668 69.0709C48.2764 70.8617 42.7514 71.0051 37.5749 69.4808ZM23.0578 58.4751C20.4967 54.3855 19.1388 49.6575 19.1397 44.8321C19.1367 41.2289 19.8948 37.6657 21.3641 34.3757L33.6214 67.9562C29.2798 65.8504 25.6189 62.5646 23.0578 58.4751ZM62.1784 43.5365C62.144 41.0236 61.4105 38.57 60.0602 36.4505C58.6792 34.7129 57.8056 32.6272 57.5362 30.424C57.5062 29.2479 57.9434 28.1077 58.7521 27.2531C59.5607 26.3985 60.675 25.899 61.851 25.864C61.9275 25.864 62.0013 25.8701 62.075 25.8763C62.1111 25.8793 62.1473 25.8824 62.1837 25.8847C59.4406 23.3719 56.1844 21.4849 52.6403 20.3541C49.0962 19.2234 45.3488 18.8759 41.6573 19.3357C37.9657 19.7955 34.418 21.0515 31.2596 23.017C28.1011 24.9826 25.4073 27.6106 23.3643 30.7195C23.9672 30.7387 24.5356 30.7507 25.0177 30.7507C27.7047 30.7507 31.866 30.4239 31.866 30.4239C32.1437 30.4078 32.4165 30.5013 32.626 30.6842C32.8355 30.8671 32.9649 31.1249 32.9864 31.4022C33.0079 31.6795 32.9198 31.9541 32.741 32.1672C32.5621 32.3802 32.3069 32.5146 32.0301 32.5414C32.0301 32.5414 30.6375 32.7044 29.0898 32.7855L38.4459 60.6172L44.0699 43.7535L40.0667 32.7856C38.6823 32.7046 37.3718 32.5416 37.3718 32.5416C37.095 32.5148 36.8397 32.3805 36.6607 32.1676C36.4818 31.9546 36.3936 31.68 36.415 31.4026C36.4364 31.1253 36.5657 30.8675 36.7752 30.6845C36.9847 30.5015 37.2576 30.408 37.5353 30.424C37.5353 30.424 41.7775 30.7509 44.3019 30.7509C46.9889 30.7509 51.1509 30.424 51.1509 30.424C51.4287 30.4078 51.7018 30.5012 51.9114 30.6841C52.121 30.8671 52.2505 31.125 52.2719 31.4025C52.2934 31.6799 52.2051 31.9546 52.0261 32.1677C51.8471 32.3807 51.5916 32.5149 51.3146 32.5416C51.3146 32.5416 49.921 32.7046 48.3743 32.7856L57.6597 60.4054L60.3102 52.0062C61.3453 49.29 61.9748 46.4361 62.1784 43.5365ZM65.5986 44.3508C66.8446 41.4402 67.5086 38.3137 67.5531 35.1478C67.5549 34.2644 67.4972 33.3818 67.3804 32.5062C70.5912 38.3824 71.3815 45.2799 69.583 51.7301C67.7845 58.1803 63.5392 63.6737 57.751 67.0407L65.5986 44.3508Z" fill="#F4F7FC"/>
</g>
<defs>
<filter id="filter0_dd" x="0" y="0" width="89.6667" height="89.6667" filterUnits="userSpaceOnUse" color-interpolation-filters="sRGB">
<feFlood flood-opacity="0" result="BackgroundImageFix"/>
<feColorMatrix in="SourceAlpha" type="matrix" values="0 0 0 0 0 0 0 0 0 0 0 0 0 0 0 0 0 0 127 0"/>
<feOffset dx="4" dy="4"/>
<feGaussianBlur stdDeviation="5"/>
<feColorMatrix type="matrix" values="0 0 0 0 0 0 0 0 0 0 0 0 0 0 0 0 0 0 1 0"/>
<feBlend mode="normal" in2="BackgroundImageFix" result="effect1_dropShadow"/>
<feColorMatrix in="SourceAlpha" type="matrix" values="0 0 0 0 0 0 0 0 0 0 0 0 0 0 0 0 0 0 127 0"/>
<feOffset dx="-4" dy="-4"/>
<feGaussianBlur stdDeviation="5"/>
<feColorMatrix type="matrix" values="0 0 0 0 1 0 0 0 0 1 0 0 0 0 1 0 0 0 0.14 0"/>
<feBlend mode="normal" in2="effect1_dropShadow" result="effect2_dropShadow"/>
<feBlend mode="normal" in="SourceGraphic" in2="effect2_dropShadow" result="shape"/>
</filter>
</defs>
</svg>
